<svg width="356" height="92" viewBox="0 0 356 92" fill="none" xmlns="http://www.w3.org/2000/svg">
<g clip-path="url(#clip0_300_1071)">
<path d="M108.984 57.7289C103.249 57.7289 99.6945 52.6186 99.6945 45.5481C99.6945 38.5477 102.686 33.3323 108.949 33.3323C113.066 33.3323 115.775 35.9575 116.269 39.4227H125.84C125.347 35.1174 123.411 31.3372 120.034 28.8171C117.289 26.7169 113.488 25.4219 108.984 25.4219C97.4424 25.4219 89.9473 34.1024 89.9473 45.5481C89.9473 57.0639 97.6888 65.4994 109.055 65.4994C114.509 65.4994 118.485 63.9944 121.441 61.1241C124.08 58.604 125.84 55.1037 126.086 51.2885H116.514C116.093 55.0338 113.277 57.7289 108.984 57.7289Z" fill="#BFBCB8"/>
<path d="M143.751 36.3789C134.883 36.3789 128.937 42.6793 128.937 50.9749C128.937 59.2704 134.883 65.5708 143.751 65.5708C152.688 65.5708 158.53 59.2704 158.53 50.9749C158.53 42.6793 152.688 36.3789 143.751 36.3789ZM143.716 59.3054C139.88 59.3054 137.874 55.9802 137.874 50.9749C137.874 45.9695 139.88 42.5743 143.716 42.5743C147.551 42.5743 149.627 45.9695 149.627 50.9749C149.592 55.9802 147.551 59.3054 143.716 59.3054Z" fill="#BFBCB8"/>
<path d="M171.051 33.4477C172.933 31.575 172.933 28.5389 171.051 26.6662C169.168 24.7936 166.116 24.7936 164.233 26.6662C162.351 28.5389 162.351 31.575 164.233 33.4477C166.116 35.3204 169.168 35.3204 171.051 33.4477Z" fill="#BFBCB8"/>
<path d="M159.973 43.3087H163.667V64.695H172.465V37.1133H159.973V43.3087Z" fill="#BFBCB8"/>
<path d="M194.106 36.3086C190.271 36.3086 187.596 37.9187 185.556 40.8939H185.38V37.1137H176.899V64.6604H185.732V49.4344C185.732 46.0392 187.667 43.6241 190.588 43.6241C193.473 43.6241 194.916 45.6191 194.916 48.5244V64.6604H203.748V46.7393C203.748 40.6139 200.159 36.3086 194.106 36.3086Z" fill="#BFBCB8"/>
<path d="M224.437 26.1914H207.935V64.6589H223.84C228.696 64.6589 232.601 63.4339 235.628 61.1587C239.956 57.8685 242.349 52.4431 242.349 45.6527C242.349 33.8919 235.135 26.1914 224.437 26.1914ZM223.136 56.6784H217.506V34.1719H223.241C229.259 34.1719 232.672 38.6872 232.672 45.6877C232.637 52.7231 229.399 56.6784 223.136 56.6784Z" fill="#BFBCB8"/>
<path d="M268.493 39.9497C266.101 37.8146 262.969 36.5195 259.028 36.5195C250.582 36.5195 244.812 42.8199 244.812 51.0455C244.812 59.376 250.442 65.6764 259.591 65.6764C263.11 65.6764 265.925 64.7663 268.248 63.1563C270.675 61.4762 272.294 59.1309 272.892 56.6459H264.306C263.532 58.361 262.019 59.376 259.697 59.376C256.072 59.376 254.031 57.0659 253.468 53.3556H273.385C273.42 47.7202 271.801 42.9599 268.493 39.9497ZM253.503 48.1053C254.102 44.815 255.825 42.715 259.169 42.715C262.019 42.715 264.095 44.815 264.412 48.1053H253.503Z" fill="#BFBCB8"/>
<path d="M290.768 47.4401C287.249 46.81 284.117 46.53 284.117 44.6049C284.117 42.8898 285.806 42.0847 287.952 42.0847C290.381 42.0847 292.07 42.8548 292.386 45.3049H300.515C300.093 39.8796 295.87 36.4844 288.023 36.4844C281.478 36.4844 276.059 39.4946 276.059 45.3049C276.059 51.7803 281.197 53.0404 286.017 53.8455C289.712 54.4755 293.055 54.7556 293.055 57.2407C293.055 59.0258 291.366 59.9709 288.727 59.9709C285.806 59.9709 283.976 58.6408 283.624 55.8756H275.285C275.566 61.966 280.633 65.6762 288.762 65.6762C296.011 65.6762 301.359 62.5611 301.359 56.5407C301.395 49.5052 295.659 48.2451 290.768 47.4401Z" fill="#BFBCB8"/>
<path d="M322.121 47.4728L331.869 37.1121H321.699L313.465 46.4228V26.1914H304.773V64.6939H313.465V56.2233L316.139 53.4232L322.79 64.6939H332.995L322.121 47.4728Z" fill="#BFBCB8"/>
<path d="M51.1694 48.1055C52.6465 48.1055 53.8438 46.9145 53.8438 45.4453C53.8438 43.9761 52.6465 42.7852 51.1694 42.7852C49.6925 42.7852 48.4951 43.9761 48.4951 45.4453C48.4951 46.9145 49.6925 48.1055 51.1694 48.1055Z" fill="#BFBCB8"/>
<path d="M72.4946 48.1055C73.9716 48.1055 75.169 46.9145 75.169 45.4453C75.169 43.9761 73.9716 42.7852 72.4946 42.7852C71.0176 42.7852 69.8203 43.9761 69.8203 45.4453C69.8203 46.9145 71.0176 48.1055 72.4946 48.1055Z" fill="#BFBCB8"/>
<path d="M72.4946 69.3516C73.9716 69.3516 75.169 68.1606 75.169 66.6914C75.169 65.2223 73.9716 64.0312 72.4946 64.0312C71.0176 64.0312 69.8203 65.2223 69.8203 66.6914C69.8203 68.1606 71.0176 69.3516 72.4946 69.3516Z" fill="#BFBCB8"/>
<path d="M80.3412 23.7073C80.0596 19.822 76.9279 16.6718 73.022 16.3918C70.5236 16.2168 68.2715 17.1619 66.688 18.772C65.4916 19.9971 63.8729 20.7321 62.1487 20.7321H61.5153C59.7559 20.7321 58.102 19.9971 56.8704 18.737C55.4277 17.2669 53.4219 16.3918 51.2051 16.3918C48.9881 16.3918 46.9824 17.3019 45.5397 18.737C44.3081 19.9971 42.6542 20.7321 40.8948 20.7321H40.2966C38.5724 20.7321 36.9185 20.0671 35.722 18.842C35.4758 18.597 35.2294 18.352 34.9831 18.1419C31.9921 15.7268 27.5935 15.7968 24.708 18.352C21.2244 21.3971 21.0836 26.7175 24.321 29.9377C24.3562 29.9727 24.3913 30.0077 24.4265 30.0427C25.6933 31.2328 26.3619 32.9129 26.3619 34.628V35.2231C26.3619 36.9732 25.6229 38.6183 24.3561 39.8433C22.8782 41.2785 21.9985 43.2735 21.9985 45.4787C21.9985 47.6838 22.9134 49.679 24.3561 51.1141C25.6229 52.3392 26.3619 53.9843 26.3619 55.7344V56.5395C26.3619 58.2546 25.6229 59.8646 24.3913 61.0547C22.843 62.5599 21.893 64.695 21.9985 67.0401C22.1745 71.1704 25.5526 74.4956 29.6696 74.6356C32.0625 74.7056 34.209 73.7605 35.722 72.1855C36.9185 70.9604 38.5371 70.1903 40.2614 70.1903H40.93C42.6542 70.1903 44.2729 70.9254 45.4693 72.1855C47.0528 73.8306 49.3401 74.7756 51.8385 74.6006C55.7443 74.3206 58.9113 71.1703 59.1929 67.2501C59.5095 62.5949 55.8499 58.7446 51.2402 58.7446C49.0585 58.7446 47.0528 59.6196 45.61 61.0547C44.3784 62.2798 42.7246 63.0149 41.0003 63.0149H40.2614C38.5371 63.0149 36.8481 62.3498 35.6165 61.0897C35.5813 61.0547 35.5813 61.0547 35.5461 61.0197C34.2793 59.7946 33.5404 58.1495 33.5404 56.3994V55.6994C33.5404 53.9493 34.2793 52.3042 35.5461 51.0791C37.024 49.644 37.9038 47.6488 37.9038 45.4437C37.9038 43.2386 36.9888 41.2435 35.5461 39.8083C34.2793 38.5832 33.5404 36.9382 33.5404 35.1881V34.558C33.5404 32.8079 34.2793 31.1627 35.5109 29.9377C35.5461 29.9027 35.5461 29.9027 35.5813 29.8677C35.6165 29.8327 35.6165 29.8327 35.6517 29.7977C36.8833 28.5726 38.5371 27.8376 40.2966 27.8376H40.93C42.6894 27.8376 44.3432 28.5726 45.5749 29.8327C47.0176 31.3028 49.0233 32.1779 51.2402 32.1779C53.4571 32.1779 55.4628 31.2678 56.9056 29.8327C58.1372 28.5726 59.7911 27.8376 61.5504 27.8376H62.1135C63.8729 27.8376 65.5268 28.5726 66.7584 29.8327C68.2011 31.3028 70.2068 32.1779 72.4238 32.1779C76.9983 32.2129 80.6578 28.3626 80.3412 23.7073Z" fill="#BFBCB8"/>
</g>
<defs>
<clipPath id="clip0_300_1071">
<rect width="311.005" height="58.4746" fill="white" transform="translate(21.9902 16.3711)"/>
</clipPath>
</defs>
</svg>
