<svg width="302" height="70" viewBox="0 0 302 70" fill="none" xmlns="http://www.w3.org/2000/svg">
<path d="M44.3493 50.7665L31.8354 56.1029V55.5632C29.3371 56.1484 26.7904 56.5116 24.226 56.6486C12.4207 56.5516 3.11081 50.4391 2.95677 43.2532V40.5911C6.81383 46.1093 14.7189 49.8508 24.226 49.6871C27.3448 49.7881 30.4611 49.4221 33.4682 48.6017L34.5711 45.9395C31.2165 46.9796 27.7244 47.5272 24.2076 47.5647C12.4022 47.5647 3.09232 41.5007 2.93829 34.1693V32.0226C6.79534 37.1406 14.7005 40.8397 24.2076 40.5911C28.3293 40.8021 32.4439 40.0607 36.2223 38.4262L36.7707 35.7641C32.8986 37.6695 28.6015 38.585 24.2753 38.4262C12.4639 38.5718 3.15394 32.5138 3.00606 25.0247V22.872C6.86312 28.081 14.7682 31.8225 24.2753 31.968C29.4039 31.8296 34.4341 30.5505 38.9888 28.2265L39.5372 25.0247C35.7356 27.7838 30.178 29.6091 24.2753 29.8759C12.4639 29.6334 3.15394 23.5208 3.00606 15.9287C3.11081 8.67609 12.47 2.61812 24.2753 2.51503C31.2809 2.61812 37.8305 5.03161 41.6875 8.96716L42.088 9.60995H44.8422L44.4417 8.96716C40.5908 3.80061 32.8397 0.398687 24.2753 0.398687C11.1638 0.350174 0.750977 7.39051 0.750977 15.868V43.7626C1.20076 52.0339 11.361 58.7832 24.1644 58.7832C32.6364 58.8135 40.2951 55.5146 44.3493 50.7665Z" fill="#BFBDB8"/>
<path d="M39.2411 69.6026L43.6465 51.18L30.9848 56.6013L38.6927 24.6924H23.9053L27.7562 8.98047H75.0513L71.1696 24.6924H55.766L52.4574 33.3639L69.5245 26.3175L39.2411 69.6026ZM46.949 47.4385L44.7494 58.275L62.9133 31.2355L48.0519 37.7361L54.657 22.576H69.5184L72.2725 11.1999H29.3335L26.5793 22.5639H41.4469L34.2873 52.8537L46.949 47.4385Z" fill="#BFBDB8"/>
<path d="M106.4 19.5123V19.5608C106.46 20.3094 106.348 21.0616 106.07 21.761C105.793 22.4605 105.358 23.089 104.798 23.5995C103.702 24.5819 102.198 25.073 100.245 25.073C99.3647 25.1047 98.4874 24.9549 97.6693 24.6332C96.8512 24.3116 96.1105 23.8252 95.4946 23.2053C94.8828 22.5543 94.4082 21.7904 94.0983 20.9577C93.7884 20.1249 93.6494 19.24 93.6893 18.3541V15.1765C93.6163 13.3981 94.243 11.6604 95.4391 10.3253C96.0391 9.70951 96.7637 9.22452 97.5661 8.90174C98.3684 8.57896 99.2308 8.42558 100.097 8.45153C101.787 8.36212 103.455 8.86962 104.798 9.88264C105.374 10.3827 105.823 11.0082 106.11 11.7094C106.397 12.4106 106.513 13.168 106.45 13.9213V13.9698H103.252C103.322 13.1417 103.061 12.3193 102.525 11.6776C101.87 11.1348 101.024 10.8688 100.171 10.9378C99.713 10.9249 99.2593 11.03 98.8551 11.2427C98.4509 11.4554 98.1102 11.7684 97.8668 12.1506C97.2712 13.0502 96.9741 14.1097 97.0165 15.1826V18.4329C96.9832 19.5048 97.2795 20.5616 97.8668 21.4649C98.4257 22.1303 99.2298 22.5504 100.103 22.6334C100.976 22.7164 101.847 22.4554 102.525 21.9076C103.075 21.2653 103.346 20.4348 103.276 19.5972H106.425V19.5487L106.4 19.5123ZM124.521 18.2267C124.574 20.0533 123.889 21.826 122.617 23.1568C121.976 23.7963 121.207 24.297 120.358 24.627C119.509 24.957 118.6 25.1089 117.688 25.073C116.777 25.1044 115.869 24.9505 115.02 24.6208C114.172 24.291 113.402 23.7927 112.759 23.1568C111.487 21.826 110.802 20.0533 110.855 18.2267V15.3221C110.81 13.4987 111.493 11.7306 112.759 10.3981C113.395 9.74907 114.163 9.23839 115.011 8.89896C115.86 8.55952 116.772 8.39884 117.688 8.42727C118.605 8.38994 119.52 8.54654 120.37 8.88651C121.22 9.22648 121.986 9.74192 122.617 10.3981C123.257 11.0491 123.754 11.8214 124.081 12.668C124.407 13.5145 124.555 14.4175 124.515 15.3221L124.57 18.2267H124.521ZM121.212 15.2736C121.267 14.1622 120.932 13.066 120.264 12.1688C119.95 11.7758 119.547 11.4612 119.086 11.2505C118.626 11.0398 118.122 10.9389 117.614 10.956C117.111 10.9282 116.61 11.0246 116.154 11.2364C115.699 11.4483 115.305 11.7688 115.008 12.1688C114.356 13.074 114.022 14.1644 114.059 15.2736V18.1782C114.007 19.3044 114.341 20.4151 115.008 21.3315C115.312 21.7237 115.708 22.0385 116.161 22.2495C116.615 22.4604 117.113 22.5616 117.614 22.5443C118.123 22.5738 118.632 22.4784 119.094 22.2667C119.557 22.0551 119.958 21.7337 120.264 21.3315C120.94 20.4196 121.275 19.3056 121.212 18.1782V15.2736ZM133.024 24.8305H129.721V8.6759H133.024V24.8305ZM151.995 24.8305H148.692L142.081 13.9455H142.032V24.8305H138.729V8.6759H142.032L148.637 19.5912H148.692V8.6759H151.995V24.8305ZM168.557 11.1864H163.856V24.8305H160.553V11.1864H155.944V8.6759H168.557V11.1864ZM182.167 17.7356H176.068V22.3685H183.32V24.8305H172.814V8.6759H183.32V11.1864H176.117V15.2251H182.223V17.7356H182.167ZM191.33 22.3685H198.686V24.8305H188.027V8.6759H191.33V22.3685ZM212.697 17.7356H206.591V22.3685H213.85V24.8305H203.338V8.6759H213.85V11.1864H206.653V15.2251H212.759V17.7356H212.697ZM231.182 22.6596C230.564 23.4051 229.777 23.9972 228.883 24.3878C227.656 24.9251 226.32 25.1782 224.977 25.1276C224.08 25.175 223.183 25.0371 222.344 24.7229C221.504 24.4087 220.741 23.9251 220.102 23.3031C219.464 22.6812 218.965 21.9347 218.637 21.1116C218.31 20.2885 218.16 19.4071 218.2 18.5239V15.128C218.159 14.2495 218.302 13.3721 218.62 12.5501C218.938 11.7282 219.424 10.9792 220.048 10.3496C220.658 9.73305 221.391 9.2481 222.201 8.92551C223.012 8.60293 223.882 8.44978 224.755 8.47579C226.752 8.47579 228.304 8.96697 229.358 9.9069C229.889 10.3735 230.304 10.9529 230.573 11.6012C230.842 12.2495 230.958 12.9496 230.911 13.6484V13.6969H227.83C227.848 13.3279 227.791 12.9591 227.662 12.6122C227.533 12.2653 227.334 11.9475 227.078 11.6776C226.78 11.4171 226.431 11.2175 226.054 11.0905C225.676 10.9635 225.277 10.9116 224.879 10.9378C224.407 10.9285 223.939 11.0259 223.512 11.2225C223.085 11.4191 222.709 11.7097 222.414 12.0718C221.79 12.9307 221.473 13.9696 221.514 15.0249V18.4269C221.458 19.5066 221.795 20.5708 222.463 21.4286C222.767 21.8024 223.157 22.1 223.6 22.2971C224.044 22.4942 224.528 22.5852 225.014 22.5625C225.639 22.5773 226.263 22.4954 226.863 22.32C227.255 22.2013 227.614 21.9936 227.91 21.7136V18.5603H224.761V16.3105H231.212V22.6596H231.182ZM239.691 18.3783V24.8305H236.388V8.6759H242.094C243.667 8.59528 245.222 9.04676 246.499 9.95541C247.022 10.377 247.439 10.9125 247.716 11.5198C247.993 12.127 248.123 12.7893 248.095 13.4544C248.107 14.219 247.874 14.968 247.429 15.595C246.912 16.2472 246.239 16.7637 245.47 17.0988C246.323 17.3069 247.07 17.8134 247.571 18.5239C248.015 19.2696 248.241 20.1216 248.224 20.9859V22.1987C248.221 22.6825 248.287 23.1644 248.421 23.6298C248.508 24.0488 248.741 24.4245 249.081 24.691V24.9396H245.68C245.332 24.6221 245.113 24.1912 245.063 23.7268C244.968 23.2065 244.918 22.679 244.916 22.1502V21.0526C244.956 20.7124 244.919 20.3677 244.808 20.0432C244.696 19.7187 244.513 19.4226 244.272 19.1761C244.03 18.9296 243.736 18.7389 243.41 18.6178C243.085 18.4966 242.736 18.448 242.389 18.4754H239.684V18.3783H239.691ZM239.691 15.9164H242.044C242.78 15.9656 243.509 15.7501 244.096 15.3099C244.335 15.0923 244.522 14.8247 244.643 14.5266C244.763 14.2286 244.814 13.9078 244.792 13.5878C244.804 13.2607 244.748 12.9347 244.629 12.6293C244.509 12.324 244.328 12.0456 244.096 11.811C243.823 11.5777 243.505 11.401 243.161 11.2916C242.817 11.1822 242.454 11.1423 242.094 11.1743H239.691V15.9042V15.9164ZM262.063 21.374H256.758L255.655 24.8729H252.205L257.75 8.71835H261.102L266.61 24.8729H263.153L262.063 21.374ZM257.559 18.815H261.256L259.45 13.1026H259.401L257.559 18.815ZM273.924 18.9605V24.8244H270.621V8.6759H276.893C278.506 8.59364 280.093 9.1012 281.348 10.1009C281.882 10.5676 282.302 11.1458 282.58 11.7932C282.857 12.4405 282.983 13.1407 282.95 13.8425C282.972 14.5436 282.84 15.2411 282.563 15.8877C282.287 16.5343 281.872 17.1149 281.348 17.59C280.093 18.5898 278.506 19.0973 276.893 19.0151H273.893L273.924 18.9605ZM273.924 16.4985H276.893C277.276 16.5208 277.66 16.4668 278.021 16.3397C278.382 16.2125 278.713 16.0149 278.994 15.7587C279.458 15.2448 279.709 14.5782 279.697 13.891C279.725 13.1832 279.478 12.4914 279.007 11.9565C278.727 11.6945 278.394 11.4946 278.03 11.3701C277.665 11.2456 277.278 11.1995 276.893 11.2349H273.893L273.924 16.4985ZM301.034 24.8244H297.731V18.154H291.015V24.8244H287.713V8.6759H291.015V15.595H297.725V8.6759H301.028L301.034 24.8244Z" fill="#BFBDB8"/>
<path d="M99.6969 51.2271H97.6451V40.5908H93.9482V38.8686H103.406V40.5908H99.7092L99.6969 51.2271ZM113.462 51.2271H111.41V45.4663C111.46 44.8884 111.298 44.3118 110.954 43.8411C110.778 43.6525 110.56 43.5058 110.318 43.4123C110.075 43.3188 109.815 43.2809 109.555 43.3014C109.21 43.2733 108.863 43.3251 108.542 43.4525C108.222 43.5799 107.935 43.7794 107.707 44.0352C107.232 44.787 107.016 45.6695 107.091 46.5518V51.1786H105.088V38.0318H107.091V41.3791C107.091 41.9188 107.041 42.4646 106.992 43.1013H107.14C107.409 42.6504 107.81 42.2908 108.292 42.0704C108.819 41.8072 109.402 41.6721 109.993 41.6763C112.297 41.6763 113.449 42.8042 113.449 45.1207L113.462 51.2271ZM120.393 51.3727C119.758 51.41 119.122 51.3153 118.527 51.0949C117.931 50.8745 117.389 50.5331 116.937 50.0932C116.504 49.6205 116.172 49.0674 115.961 48.4665C115.749 47.8655 115.662 47.2289 115.704 46.5942C115.638 45.2983 116.047 44.0221 116.856 42.9982C117.254 42.5528 117.748 42.2018 118.303 41.9718C118.858 41.7417 119.459 41.6386 120.06 41.6702C120.605 41.6443 121.149 41.7313 121.658 41.9256C122.166 42.1199 122.627 42.4172 123.012 42.7981C123.401 43.2166 123.701 43.7087 123.891 44.2445C124.082 44.7803 124.16 45.3487 124.121 45.915V47.0005H117.762C117.763 47.7579 118.041 48.4895 118.545 49.0623C118.807 49.3177 119.12 49.5156 119.465 49.6431C119.811 49.7706 120.179 49.8248 120.547 49.8021C121.069 49.8073 121.589 49.7564 122.1 49.6505C122.635 49.531 123.154 49.3499 123.646 49.1108V50.7663C123.173 50.9975 122.669 51.1628 122.149 51.2575C121.57 51.3599 120.981 51.3985 120.393 51.3727ZM120.042 43.1923C119.755 43.182 119.468 43.2307 119.201 43.335C118.934 43.4394 118.691 43.5973 118.489 43.7987C118.061 44.2952 117.813 44.9185 117.787 45.5694H122.1C122.14 44.9324 121.943 44.3027 121.545 43.7987C121.359 43.5981 121.129 43.4403 120.874 43.3365C120.618 43.2328 120.343 43.1856 120.067 43.1984L120.042 43.1923ZM135.704 43.3439H133.4V51.2271H131.348V43.3439H129.802V42.41L131.348 41.8036V41.1972C131.274 40.3046 131.562 39.4195 132.149 38.7352C132.476 38.4529 132.857 38.2378 133.27 38.1024C133.682 37.9671 134.118 37.9142 134.552 37.9469C135.267 37.9428 135.978 38.0597 136.653 38.2926L136.129 39.851C135.66 39.6974 135.17 39.6136 134.675 39.6024C134.489 39.5896 134.303 39.6184 134.13 39.6866C133.957 39.7549 133.802 39.8609 133.677 39.9965C133.457 40.3624 133.352 40.7846 133.375 41.2094V41.8158H135.68L135.729 43.3439H135.704ZM144.059 51.2271L143.763 50.0143H143.659C143.36 50.4597 142.945 50.8179 142.457 51.0513C141.912 51.3129 141.314 51.4478 140.707 51.4454C139.764 51.504 138.833 51.2045 138.107 50.6086C137.491 50.0628 137.257 49.1775 137.257 48.0435V41.8703H139.309V47.6312C139.267 48.2074 139.426 48.7805 139.758 49.2563C139.935 49.4446 140.153 49.5915 140.395 49.6859C140.637 49.7804 140.897 49.8201 141.157 49.8021C141.503 49.8294 141.85 49.7768 142.171 49.6483C142.492 49.5198 142.778 49.3191 143.006 49.0623C143.482 48.3132 143.698 47.4322 143.622 46.5518V41.8703H145.673V51.2271H144.059ZM152.069 49.7536C152.58 49.7414 153.086 49.6577 153.572 49.5049V50.9846C153.303 51.1064 153.016 51.1882 152.722 51.2271C152.358 51.2878 151.989 51.3223 151.619 51.3302C149.713 51.3302 148.762 50.3438 148.767 48.371V43.35H147.503V42.4646L148.902 41.7248L149.604 39.754H150.837V41.8218H153.535V43.35H150.837V48.371C150.817 48.5659 150.838 48.7627 150.898 48.9494C150.959 49.1361 151.057 49.3086 151.188 49.4564C151.309 49.5668 151.452 49.6504 151.608 49.7017C151.764 49.7529 151.93 49.7706 152.094 49.7536H152.069ZM162.131 51.2271L161.829 50.0143H161.73C161.429 50.458 161.015 50.8157 160.529 51.0513C159.981 51.3122 159.381 51.447 158.773 51.4454C157.829 51.504 156.899 51.2045 156.173 50.6086C155.56 49.8952 155.255 48.9749 155.322 48.0435V41.8703H157.374V47.6312C157.332 48.2074 157.491 48.7805 157.824 49.2563C158 49.4446 158.218 49.5915 158.46 49.6859C158.702 49.7804 158.963 49.8201 159.222 49.8021C159.568 49.8299 159.915 49.7775 160.236 49.649C160.557 49.5205 160.843 49.3195 161.071 49.0623C161.547 48.3132 161.763 47.4322 161.687 46.5518V41.8703H163.739V51.2271H162.131ZM171.459 41.6702C171.796 41.671 172.133 41.7035 172.463 41.7672L172.26 43.635C171.963 43.5787 171.663 43.5463 171.36 43.5379C170.996 43.5213 170.633 43.5832 170.295 43.7194C169.958 43.8556 169.655 44.0627 169.407 44.3263C168.898 44.8769 168.629 45.6017 168.656 46.3456V51.1968H166.659V41.8703H168.255L168.508 43.4955H168.606C168.91 42.9673 169.332 42.5134 169.839 42.1675C170.316 41.8455 170.88 41.6722 171.459 41.6702ZM178.015 51.3727C177.381 51.4095 176.746 51.3146 176.151 51.0942C175.557 50.8737 175.016 50.5327 174.564 50.0932C174.132 49.6205 173.8 49.0674 173.588 48.4665C173.377 47.8655 173.29 47.2289 173.332 46.5942C173.266 45.2983 173.674 44.0221 174.484 42.9982C174.882 42.5512 175.377 42.1993 175.933 41.9692C176.49 41.739 177.092 41.6368 177.694 41.6702C178.24 41.6446 178.785 41.7317 179.295 41.926C179.804 42.1203 180.266 42.4173 180.652 42.7981C181.033 43.2206 181.324 43.7144 181.507 44.2499C181.69 44.7854 181.762 45.3517 181.718 45.915V47.0005H175.365C175.357 47.7561 175.623 48.4897 176.117 49.0683C176.379 49.3244 176.692 49.5227 177.037 49.6503C177.383 49.7778 177.752 49.8316 178.12 49.8081C178.639 49.8137 179.158 49.7628 179.666 49.6565C180.204 49.5381 180.725 49.3569 181.219 49.1168V50.7663C180.743 50.9984 180.237 51.1637 179.715 51.2575C179.154 51.3538 178.584 51.3924 178.015 51.3727ZM177.694 43.1984C177.408 43.1886 177.123 43.2374 176.857 43.3418C176.59 43.4462 176.349 43.6038 176.148 43.8048C175.719 44.3012 175.472 44.9246 175.446 45.5755H179.759C179.801 44.9392 179.606 44.3096 179.21 43.8048C179.014 43.6062 178.778 43.4498 178.517 43.3454C178.256 43.241 177.976 43.191 177.694 43.1984ZM196.986 46.5214C197.058 47.8261 196.629 49.1097 195.784 50.1174C195.355 50.5447 194.839 50.8775 194.27 51.0939C193.701 51.3103 193.091 51.4053 192.482 51.3727C191.656 51.3838 190.843 51.1742 190.128 50.7663C189.438 50.3687 188.895 49.7656 188.576 49.0441C188.202 48.2419 188.014 47.3676 188.027 46.4851C187.952 45.1896 188.394 43.9166 189.259 42.9376C189.691 42.5083 190.21 42.1735 190.783 41.9551C191.355 41.7367 191.967 41.6396 192.58 41.6702C193.188 41.6443 193.795 41.7497 194.357 41.9792C194.919 42.2086 195.423 42.5564 195.834 42.9982C196.662 43.9839 197.075 45.2451 196.986 46.5214ZM190.079 46.5214C190.079 48.6863 190.88 49.7718 192.544 49.7718C194.207 49.7718 194.946 48.6681 194.946 46.5214C194.946 44.3748 194.145 43.3196 192.544 43.3196C192.189 43.2959 191.834 43.3601 191.511 43.5063C191.188 43.6525 190.908 43.876 190.695 44.1565C190.243 44.8617 190.027 45.689 190.079 46.5214ZM204.09 43.3681H201.786V51.2514H199.734V43.3681H198.187V42.41L199.734 41.8036V41.1972C199.66 40.3046 199.948 39.4195 200.535 38.7352C200.862 38.4529 201.243 38.2378 201.656 38.1024C202.068 37.9671 202.504 37.9142 202.938 37.9469C203.653 37.9428 204.364 38.0597 205.039 38.2926L204.491 39.851C204.021 39.6974 203.531 39.6136 203.036 39.6024C202.851 39.5896 202.664 39.6184 202.491 39.6866C202.318 39.7549 202.164 39.8609 202.038 39.9965C201.812 40.3599 201.706 40.784 201.736 41.2094V41.8158H204.041V43.3439L204.09 43.3681ZM218.304 51.2514H216.253V45.4906C216.281 44.9222 216.142 44.3578 215.852 43.8654C215.696 43.6788 215.496 43.5323 215.27 43.4383C215.043 43.3443 214.797 43.3057 214.552 43.3257C214.228 43.2957 213.901 43.3472 213.602 43.4756C213.304 43.6039 213.043 43.8048 212.845 44.0594C212.423 44.8298 212.233 45.7029 212.297 46.576V51.2514H210.295V41.8703H211.897L212.198 43.0831H212.297C212.566 42.6322 212.968 42.2726 213.449 42.0523C213.964 41.8091 214.53 41.6906 215.101 41.7066C216.548 41.7066 217.565 42.1978 218.003 43.1802H218.15C218.449 42.7235 218.863 42.3515 219.352 42.1008C219.898 41.837 220.499 41.702 221.108 41.7066C221.561 41.672 222.016 41.7283 222.446 41.8722C222.876 42.0161 223.272 42.2444 223.609 42.5434C224.184 43.2719 224.469 44.1819 224.41 45.1025V51.2271H222.408V45.4663C222.436 44.8979 222.297 44.3336 222.007 43.8411C221.848 43.6588 221.647 43.5152 221.422 43.4216C221.196 43.3279 220.952 43.2868 220.707 43.3014C220.379 43.2671 220.047 43.3166 219.744 43.4451C219.441 43.5736 219.176 43.7769 218.976 44.0352C218.574 44.7054 218.384 45.4777 218.428 46.2546V51.2271L218.304 51.2514ZM235.52 46.5214C235.583 47.83 235.143 49.1142 234.287 50.1174C233.862 50.5408 233.351 50.8713 232.787 51.0876C232.223 51.3038 231.62 51.401 231.015 51.3727C230.19 51.3829 229.377 51.1734 228.662 50.7663C227.972 50.3687 227.428 49.7656 227.109 49.0441C226.735 48.2419 226.548 47.3676 226.561 46.4851C226.477 45.1938 226.908 43.9212 227.762 42.9376C228.198 42.5044 228.722 42.1673 229.3 41.9488C229.877 41.7302 230.496 41.6353 231.114 41.6702C231.725 41.6432 232.333 41.7488 232.898 41.9793C233.462 42.2099 233.968 42.5598 234.38 43.0043C235.182 44.0012 235.587 45.2516 235.52 46.5214ZM228.613 46.5214C228.613 48.6863 229.414 49.7718 231.077 49.7718C232.741 49.7718 233.48 48.6863 233.48 46.5214C233.48 44.3566 232.679 43.3196 231.077 43.3196C230.722 43.2959 230.367 43.3601 230.045 43.5063C229.722 43.6525 229.441 43.876 229.229 44.1565C228.777 44.8617 228.561 45.689 228.613 46.5214ZM246.228 51.2453H244.176V45.4845C244.228 44.9073 244.069 44.3308 243.727 43.8593C243.549 43.6713 243.33 43.5251 243.087 43.4317C242.844 43.3382 242.582 43.2999 242.322 43.3196C241.976 43.285 241.627 43.3337 241.305 43.4616C240.983 43.5894 240.698 43.7925 240.473 44.0534C240.021 44.8143 239.807 45.6897 239.857 46.57V51.2453H237.861V41.8703H239.457L239.759 43.0831H239.857C240.159 42.6417 240.573 42.2862 241.059 42.0523C241.609 41.8048 242.21 41.6864 242.815 41.7066C245.113 41.7066 246.216 42.8406 246.216 45.151L246.228 51.2453ZM253.184 51.3969C252.55 51.4349 251.915 51.3406 251.32 51.12C250.726 50.8995 250.185 50.5579 249.734 50.1174C249.301 49.6454 248.968 49.0923 248.756 48.4912C248.545 47.8901 248.458 47.2532 248.502 46.6185C248.435 45.3226 248.844 44.0464 249.654 43.0225C250.05 42.5721 250.544 42.2163 251.1 41.982C251.657 41.7478 252.26 41.6411 252.864 41.6702C253.409 41.6439 253.953 41.7308 254.462 41.9251C254.97 42.1194 255.431 42.4169 255.815 42.7981C256.198 43.2196 256.491 43.713 256.675 44.2487C256.859 44.7843 256.932 45.3512 256.887 45.915V47.0005H250.529C250.523 47.7555 250.79 48.4881 251.28 49.0683C251.542 49.3237 251.856 49.5217 252.201 49.6492C252.546 49.7767 252.915 49.8309 253.283 49.8081C253.805 49.814 254.325 49.7631 254.836 49.6565C255.37 49.5286 255.891 49.3478 256.388 49.1168V50.7663C255.913 50.9975 255.407 51.1628 254.885 51.2575C254.324 51.3538 253.754 51.3924 253.184 51.3727V51.3969ZM252.784 43.2165C252.496 43.2063 252.21 43.2549 251.943 43.3593C251.676 43.4637 251.433 43.6216 251.231 43.823C250.805 44.3209 250.558 44.9434 250.529 45.5936H254.842C254.884 44.9574 254.689 44.3278 254.293 43.823C254.105 43.6142 253.872 43.4497 253.611 43.3416C253.35 43.2334 253.067 43.1845 252.784 43.1984V43.2165ZM257.386 41.8885H259.592L261.539 47.2067C261.826 47.8888 262.033 48.6009 262.155 49.3291H262.205C262.274 48.9437 262.375 48.5644 262.507 48.1951C262.654 47.7524 263.357 45.63 264.706 41.8885H266.906L262.858 52.4763C262.106 54.3986 260.905 55.3871 259.161 55.3871C258.721 55.3877 258.282 55.3368 257.855 55.2355V53.6588C258.202 53.722 258.555 53.7565 258.908 53.7619C259.857 53.7619 260.56 53.2161 260.96 52.0822L261.311 51.1968L257.386 41.8885Z" fill="#BFBDB8"/>
</svg>
