<svg width="269" height="50" viewBox="0 0 269 50" fill="none" xmlns="http://www.w3.org/2000/svg">
<path d="M0.209961 0.0507812H19.8895C23.638 0.0507812 26.4494 0.982215 28.5319 2.5346C30.8226 4.39747 32.0721 7.08827 32.0721 10.4C32.0721 14.2293 30.5103 16.6096 27.3865 18.0585V18.2655C31.5515 19.6109 33.9464 23.3366 33.9464 27.7868C33.9464 32.03 32.2804 35.3417 29.5731 37.4116C27.2824 39.0675 24.3669 39.7919 20.4102 39.7919H0.209961V0.0507812ZM17.9112 15.5747C19.9937 15.5747 21.5555 14.4362 21.5555 12.0559C21.5555 9.77908 19.9937 8.64066 17.807 8.64066H11.0389V15.4712H17.9112V15.5747ZM18.8483 30.9951C21.2431 30.9951 23.0133 29.5462 23.0133 26.9588C23.0133 24.1645 21.139 22.9226 18.8483 22.9226H11.1431V31.0985H18.8483V30.9951ZM35.7165 0.0507812H46.0248V39.8954H35.7165V0.0507812ZM48.1073 25.7169C48.1073 16.7131 53.9383 10.7105 62.9972 10.7105C72.056 10.7105 77.7829 16.8166 77.7829 25.7169C77.7829 34.7208 72.056 40.7234 62.9972 40.7234C53.9383 40.7234 48.1073 34.7208 48.1073 25.7169ZM67.4745 25.7169C67.4745 20.7493 65.9127 17.6445 62.7889 17.6445C59.6652 17.6445 58.2074 20.7493 58.2074 25.7169C58.2074 30.6846 59.6652 33.8928 62.7889 33.8928C65.9127 33.7894 67.4745 30.6846 67.4745 25.7169ZM78.9283 25.7169C78.9283 16.7131 84.7592 10.7105 93.8181 10.7105C102.877 10.7105 108.5 16.7131 108.5 25.7169C108.5 34.7208 102.773 40.7234 93.714 40.7234C84.7592 40.7234 78.9283 34.7208 78.9283 25.7169ZM98.2954 25.7169C98.2954 20.7493 96.7336 17.6445 93.6098 17.6445C90.4861 17.6445 89.0284 20.7493 89.0284 25.7169C89.0284 30.6846 90.4861 33.8928 93.6098 33.8928C96.7336 33.7894 98.2954 30.6846 98.2954 25.7169ZM110.582 11.435H120.162V15.6782H120.37C122.244 12.3664 124.847 10.607 129.012 10.607C132.657 10.607 135.364 12.3664 136.717 15.4712H136.926C139.216 11.7454 142.236 10.607 145.776 10.607C152.44 10.607 155.252 15.4712 155.252 21.9912V39.7919H145.256V23.7506C145.256 20.8528 144.319 18.9899 141.82 18.9899C139.321 18.9899 138.071 21.2668 138.071 24.3715V39.7919H128.075V23.7506C128.075 20.8528 127.138 18.9899 124.639 18.9899C122.14 18.9899 120.891 21.2668 120.891 24.3715V39.7919H110.582V11.435ZM167.851 36.0662H167.747V39.7919H158.167V0.0507812H168.163V14.3328H168.371C170.246 11.8489 172.849 10.5035 176.493 10.5035C183.678 10.5035 187.843 16.9201 187.843 25.5099C187.843 35.1348 183.365 40.7234 175.868 40.7234C172.745 40.7234 169.517 39.2745 167.851 36.0662ZM177.534 25.4065C177.534 20.8528 175.868 17.8515 172.849 17.8515C169.725 17.8515 167.851 20.8528 167.851 25.4065C167.851 29.9601 169.829 32.9614 172.849 32.9614C175.868 32.9614 177.534 30.0636 177.534 25.4065ZM188.988 25.6134C188.988 16.7131 194.923 10.607 203.461 10.607C207.731 10.607 210.958 11.9524 213.457 14.3328C216.789 17.541 218.247 22.5087 218.143 28.3042H198.984C199.401 31.823 201.067 33.6859 204.086 33.6859C205.856 33.6859 207.418 32.8579 208.043 30.9951H217.727C216.061 37.5151 210.958 40.7234 203.774 40.7234C194.923 40.6199 188.988 34.6173 188.988 25.6134ZM198.984 22.6122H208.147C207.939 19.1969 206.065 17.4375 203.67 17.4375C200.858 17.334 199.296 19.3004 198.984 22.6122ZM229.493 16.2991H229.701C231.783 12.3664 234.491 10.814 237.927 10.814C238.76 10.814 239.28 10.9175 239.593 11.1245V19.8179H239.384C233.449 18.7829 230.013 21.5772 230.013 27.9938V39.8954H219.913V11.435H229.493V16.2991ZM240.634 39.8954H250.318C250.734 41.1373 251.984 42.2757 254.378 42.2757C257.606 42.2757 258.752 40.3094 258.752 37.3081V35.2382H258.543C256.982 37.1011 254.795 38.4465 251.671 38.4465C245.528 38.4465 240.113 33.8928 240.113 24.9925C240.113 16.8166 244.487 10.5035 251.151 10.5035C255.003 10.5035 257.294 12.0559 258.856 14.4362H259.064V11.3315H268.643V35.9627C268.643 40.5164 267.082 44.0351 264.687 46.105C262.188 48.2783 258.648 49.2097 254.587 49.2097C246.881 49.3132 241.571 46.2085 240.634 39.8954ZM259.168 24.5785C259.168 21.0598 257.502 18.162 254.587 18.162C251.775 18.162 250.005 20.6458 250.005 24.5785C250.005 28.4077 251.775 31.0985 254.587 31.0985C257.398 31.0985 259.168 28.3042 259.168 24.5785Z" fill="#BFBDB8"/>
</svg>
