<svg width="84" height="57" viewBox="0 0 84 57" fill="none" xmlns="http://www.w3.org/2000/svg">
<g filter="url(#filter0_d_300_1018)">
<circle cx="42" cy="39" r="18" fill="url(#paint0_linear_300_1018)"/>
<mask id="path-2-outside-1_300_1018" maskUnits="userSpaceOnUse" x="26.7188" y="30.1289" width="30" height="23" fill="black">
<rect fill="white" x="26.7188" y="30.1289" width="30" height="23"/>
<path d="M49.4281 33.9489C49.0141 33.9528 48.6013 33.9873 48.1929 34.0529C47.7846 34.1184 47.3825 34.2184 46.99 34.3456C46.2056 34.6027 45.4584 34.9773 44.7954 35.4678C44.1284 35.9549 43.5393 36.5392 42.9605 37.1291C42.3827 37.7208 41.8061 38.2909 41.1775 38.8362C42.4465 39.6042 43.8799 40.0466 45.3528 40.2065C46.8245 40.371 48.3302 40.2122 49.737 39.7562C51.1444 39.3007 52.4529 38.543 53.544 37.5467C54.6351 36.5511 55.5342 35.4316 56.0911 34.0647C55.0841 33.1233 53.8851 32.3893 52.5879 31.9265C51.2906 31.462 49.8957 31.2812 48.5239 31.3755C47.8371 31.4236 47.1577 31.553 46.4975 31.7462C45.8385 31.944 45.2003 32.2101 44.5983 32.543C44.2995 32.7119 44.0075 32.8928 43.7285 33.0951C43.4501 33.2974 43.1785 33.5093 42.9175 33.7359C42.394 34.1862 41.9015 34.675 41.4141 35.1706C40.9262 35.6656 40.4416 36.1679 39.9322 36.6483C39.6775 36.8884 39.4172 37.1235 39.1461 37.3467C38.8756 37.571 38.5966 37.7858 38.3029 37.9813C38.23 38.031 38.1572 38.0807 38.0815 38.1259C38.0064 38.1723 37.9324 38.2203 37.8562 38.2644L37.6252 38.3943C37.5489 38.439 37.4682 38.4752 37.3897 38.5158L37.2711 38.5757C37.2315 38.5949 37.1903 38.6119 37.1502 38.63C37.0689 38.665 36.9893 38.7029 36.9074 38.7362C36.7419 38.7995 36.5776 38.8656 36.4081 38.9159C36.241 38.9741 36.0676 39.0131 35.897 39.0594L35.6367 39.1126L35.5062 39.1385L35.3746 39.1583C35.0245 39.2109 34.6704 39.2352 34.3163 39.2318C33.6086 39.225 32.9032 39.1086 32.23 38.8922C31.8934 38.7837 31.5653 38.6498 31.2491 38.4921C30.9334 38.3327 30.629 38.1514 30.3392 37.9496C29.1837 37.1359 28.2677 35.9854 27.7481 34.6694L27.7188 34.5942L27.7837 34.5473C28.7545 33.8449 29.9219 33.4398 31.1073 33.3346C32.2944 33.2295 33.5047 33.4284 34.5986 33.8941C35.1453 34.128 35.6626 34.4281 36.1438 34.7762C36.6239 35.1259 37.0627 35.5294 37.4637 35.9656C38.2617 36.8432 38.8965 37.8592 39.3799 38.9368C39.6233 39.4753 39.8272 40.0314 39.9955 40.5976C40.0819 40.8801 40.1536 41.1666 40.2219 41.4537C40.2852 41.7419 40.3445 42.0317 40.3891 42.3233C40.4778 42.9065 40.5467 43.4913 40.5981 44.0779C40.6274 44.3706 40.6466 44.6644 40.6704 44.9577C40.689 45.2515 40.7116 45.5448 40.7263 45.8387C40.7923 47.0135 40.8296 48.1894 40.8415 49.3659C40.855 50.5418 40.842 51.7183 40.7969 52.8936C40.8121 52.306 40.8183 51.7177 40.8183 51.13C40.8161 50.5424 40.811 49.9541 40.798 49.3664C40.7743 48.1911 40.7257 47.0163 40.6483 45.8432C40.6308 45.5499 40.6054 45.2572 40.584 44.9639C40.5568 44.6712 40.5354 44.3785 40.5032 44.0864C40.4462 43.5021 40.3716 42.9189 40.2779 42.3408C40.1807 41.7633 40.0452 41.1926 39.8746 40.6326C39.7046 40.0726 39.4996 39.5234 39.2556 38.9916C38.7716 37.9282 38.138 36.9285 37.3479 36.0702C36.9509 35.6435 36.5183 35.2497 36.0456 34.9101C35.5723 34.5716 35.0651 34.2817 34.5297 34.0562C33.4584 33.6081 32.2797 33.4222 31.1248 33.5313C29.9727 33.6409 28.8771 33.9548 27.9413 34.6357C28.4479 35.9111 29.3407 36.985 30.4629 37.7722C30.7447 37.9677 31.0401 38.1429 31.3462 38.2966C31.6529 38.4486 31.9714 38.578 32.2978 38.6825C32.9507 38.891 33.634 39.0024 34.3185 39.0075C34.6608 39.0103 35.003 38.986 35.3407 38.9346L35.4672 38.9153L35.5932 38.8899L35.8445 38.8379C36.0094 38.7927 36.1766 38.7554 36.3381 38.6984C36.5019 38.6492 36.6606 38.5848 36.8204 38.5237C36.8995 38.4915 36.9768 38.4548 37.0553 38.4203C37.0943 38.4028 37.1338 38.3864 37.1722 38.3672L37.2869 38.309C37.3626 38.2695 37.4411 38.2339 37.5151 38.1904L37.7387 38.0638C37.8127 38.0203 37.8844 37.9734 37.9578 37.9282C38.0312 37.8841 38.1024 37.8355 38.173 37.7869C38.4588 37.5959 38.7315 37.3851 38.9964 37.1647C39.2624 36.9455 39.5188 36.7127 39.7701 36.4748C40.2739 35.9995 40.7539 35.4966 41.2442 35.0011C41.7338 34.5049 42.2319 34.0127 42.765 33.5562C43.0305 33.3267 43.3083 33.1103 43.5935 32.9041C43.8788 32.6978 44.1798 32.5119 44.487 32.3395C45.1043 31.9999 45.7583 31.7287 46.4332 31.5275C47.1092 31.3309 47.805 31.2004 48.5075 31.1523C49.9115 31.0585 51.3353 31.2461 52.6602 31.723C53.9845 32.1983 55.2072 32.9504 56.2329 33.9133L56.2854 33.9624L56.2583 34.028C56.1126 34.3755 55.951 34.7163 55.7709 35.0474C55.5868 35.3763 55.3885 35.6967 55.1711 36.0046C54.9508 36.3103 54.7176 36.6064 54.4674 36.8873C54.215 37.1664 53.9512 37.4354 53.6717 37.6874C52.554 38.6961 51.2189 39.4578 49.7873 39.9121C48.3556 40.3665 46.8285 40.5179 45.3375 40.3427C43.8466 40.1715 42.3963 39.6646 41.1227 38.8741L41.0612 38.8362L41.116 38.7899C41.744 38.2553 42.3183 37.6592 42.9029 37.0721C43.4879 36.4872 44.0855 35.9057 44.762 35.4215C45.4352 34.9344 46.1897 34.5626 46.981 34.3151C47.3769 34.1924 47.7818 34.0975 48.1913 34.037C48.6001 33.9771 49.0147 33.9478 49.4281 33.9489Z"/>
</mask>
<path d="M49.4281 33.9489C49.0141 33.9528 48.6013 33.9873 48.1929 34.0529C47.7846 34.1184 47.3825 34.2184 46.99 34.3456C46.2056 34.6027 45.4584 34.9773 44.7954 35.4678C44.1284 35.9549 43.5393 36.5392 42.9605 37.1291C42.3827 37.7208 41.8061 38.2909 41.1775 38.8362C42.4465 39.6042 43.8799 40.0466 45.3528 40.2065C46.8245 40.371 48.3302 40.2122 49.737 39.7562C51.1444 39.3007 52.4529 38.543 53.544 37.5467C54.6351 36.5511 55.5342 35.4316 56.0911 34.0647C55.0841 33.1233 53.8851 32.3893 52.5879 31.9265C51.2906 31.462 49.8957 31.2812 48.5239 31.3755C47.8371 31.4236 47.1577 31.553 46.4975 31.7462C45.8385 31.944 45.2003 32.2101 44.5983 32.543C44.2995 32.7119 44.0075 32.8928 43.7285 33.0951C43.4501 33.2974 43.1785 33.5093 42.9175 33.7359C42.394 34.1862 41.9015 34.675 41.4141 35.1706C40.9262 35.6656 40.4416 36.1679 39.9322 36.6483C39.6775 36.8884 39.4172 37.1235 39.1461 37.3467C38.8756 37.571 38.5966 37.7858 38.3029 37.9813C38.23 38.031 38.1572 38.0807 38.0815 38.1259C38.0064 38.1723 37.9324 38.2203 37.8562 38.2644L37.6252 38.3943C37.5489 38.439 37.4682 38.4752 37.3897 38.5158L37.2711 38.5757C37.2315 38.5949 37.1903 38.6119 37.1502 38.63C37.0689 38.665 36.9893 38.7029 36.9074 38.7362C36.7419 38.7995 36.5776 38.8656 36.4081 38.9159C36.241 38.9741 36.0676 39.0131 35.897 39.0594L35.6367 39.1126L35.5062 39.1385L35.3746 39.1583C35.0245 39.2109 34.6704 39.2352 34.3163 39.2318C33.6086 39.225 32.9032 39.1086 32.23 38.8922C31.8934 38.7837 31.5653 38.6498 31.2491 38.4921C30.9334 38.3327 30.629 38.1514 30.3392 37.9496C29.1837 37.1359 28.2677 35.9854 27.7481 34.6694L27.7188 34.5942L27.7837 34.5473C28.7545 33.8449 29.9219 33.4398 31.1073 33.3346C32.2944 33.2295 33.5047 33.4284 34.5986 33.8941C35.1453 34.128 35.6626 34.4281 36.1438 34.7762C36.6239 35.1259 37.0627 35.5294 37.4637 35.9656C38.2617 36.8432 38.8965 37.8592 39.3799 38.9368C39.6233 39.4753 39.8272 40.0314 39.9955 40.5976C40.0819 40.8801 40.1536 41.1666 40.2219 41.4537C40.2852 41.7419 40.3445 42.0317 40.3891 42.3233C40.4778 42.9065 40.5467 43.4913 40.5981 44.0779C40.6274 44.3706 40.6466 44.6644 40.6704 44.9577C40.689 45.2515 40.7116 45.5448 40.7263 45.8387C40.7923 47.0135 40.8296 48.1894 40.8415 49.3659C40.855 50.5418 40.842 51.7183 40.7969 52.8936C40.8121 52.306 40.8183 51.7177 40.8183 51.13C40.8161 50.5424 40.811 49.9541 40.798 49.3664C40.7743 48.1911 40.7257 47.0163 40.6483 45.8432C40.6308 45.5499 40.6054 45.2572 40.584 44.9639C40.5568 44.6712 40.5354 44.3785 40.5032 44.0864C40.4462 43.5021 40.3716 42.9189 40.2779 42.3408C40.1807 41.7633 40.0452 41.1926 39.8746 40.6326C39.7046 40.0726 39.4996 39.5234 39.2556 38.9916C38.7716 37.9282 38.138 36.9285 37.3479 36.0702C36.9509 35.6435 36.5183 35.2497 36.0456 34.9101C35.5723 34.5716 35.0651 34.2817 34.5297 34.0562C33.4584 33.6081 32.2797 33.4222 31.1248 33.5313C29.9727 33.6409 28.8771 33.9548 27.9413 34.6357C28.4479 35.9111 29.3407 36.985 30.4629 37.7722C30.7447 37.9677 31.0401 38.1429 31.3462 38.2966C31.6529 38.4486 31.9714 38.578 32.2978 38.6825C32.9507 38.891 33.634 39.0024 34.3185 39.0075C34.6608 39.0103 35.003 38.986 35.3407 38.9346L35.4672 38.9153L35.5932 38.8899L35.8445 38.8379C36.0094 38.7927 36.1766 38.7554 36.3381 38.6984C36.5019 38.6492 36.6606 38.5848 36.8204 38.5237C36.8995 38.4915 36.9768 38.4548 37.0553 38.4203C37.0943 38.4028 37.1338 38.3864 37.1722 38.3672L37.2869 38.309C37.3626 38.2695 37.4411 38.2339 37.5151 38.1904L37.7387 38.0638C37.8127 38.0203 37.8844 37.9734 37.9578 37.9282C38.0312 37.8841 38.1024 37.8355 38.173 37.7869C38.4588 37.5959 38.7315 37.3851 38.9964 37.1647C39.2624 36.9455 39.5188 36.7127 39.7701 36.4748C40.2739 35.9995 40.7539 35.4966 41.2442 35.0011C41.7338 34.5049 42.2319 34.0127 42.765 33.5562C43.0305 33.3267 43.3083 33.1103 43.5935 32.9041C43.8788 32.6978 44.1798 32.5119 44.487 32.3395C45.1043 31.9999 45.7583 31.7287 46.4332 31.5275C47.1092 31.3309 47.805 31.2004 48.5075 31.1523C49.9115 31.0585 51.3353 31.2461 52.6602 31.723C53.9845 32.1983 55.2072 32.9504 56.2329 33.9133L56.2854 33.9624L56.2583 34.028C56.1126 34.3755 55.951 34.7163 55.7709 35.0474C55.5868 35.3763 55.3885 35.6967 55.1711 36.0046C54.9508 36.3103 54.7176 36.6064 54.4674 36.8873C54.215 37.1664 53.9512 37.4354 53.6717 37.6874C52.554 38.6961 51.2189 39.4578 49.7873 39.9121C48.3556 40.3665 46.8285 40.5179 45.3375 40.3427C43.8466 40.1715 42.3963 39.6646 41.1227 38.8741L41.0612 38.8362L41.116 38.7899C41.744 38.2553 42.3183 37.6592 42.9029 37.0721C43.4879 36.4872 44.0855 35.9057 44.762 35.4215C45.4352 34.9344 46.1897 34.5626 46.981 34.3151C47.3769 34.1924 47.7818 34.0975 48.1913 34.037C48.6001 33.9771 49.0147 33.9478 49.4281 33.9489Z" fill="white"/>
<path d="M49.4281 33.9489C49.0141 33.9528 48.6013 33.9873 48.1929 34.0529C47.7846 34.1184 47.3825 34.2184 46.99 34.3456C46.2056 34.6027 45.4584 34.9773 44.7954 35.4678C44.1284 35.9549 43.5393 36.5392 42.9605 37.1291C42.3827 37.7208 41.8061 38.2909 41.1775 38.8362C42.4465 39.6042 43.8799 40.0466 45.3528 40.2065C46.8245 40.371 48.3302 40.2122 49.737 39.7562C51.1444 39.3007 52.4529 38.543 53.544 37.5467C54.6351 36.5511 55.5342 35.4316 56.0911 34.0647C55.0841 33.1233 53.8851 32.3893 52.5879 31.9265C51.2906 31.462 49.8957 31.2812 48.5239 31.3755C47.8371 31.4236 47.1577 31.553 46.4975 31.7462C45.8385 31.944 45.2003 32.2101 44.5983 32.543C44.2995 32.7119 44.0075 32.8928 43.7285 33.0951C43.4501 33.2974 43.1785 33.5093 42.9175 33.7359C42.394 34.1862 41.9015 34.675 41.4141 35.1706C40.9262 35.6656 40.4416 36.1679 39.9322 36.6483C39.6775 36.8884 39.4172 37.1235 39.1461 37.3467C38.8756 37.571 38.5966 37.7858 38.3029 37.9813C38.23 38.031 38.1572 38.0807 38.0815 38.1259C38.0064 38.1723 37.9324 38.2203 37.8562 38.2644L37.6252 38.3943C37.5489 38.439 37.4682 38.4752 37.3897 38.5158L37.2711 38.5757C37.2315 38.5949 37.1903 38.6119 37.1502 38.63C37.0689 38.665 36.9893 38.7029 36.9074 38.7362C36.7419 38.7995 36.5776 38.8656 36.4081 38.9159C36.241 38.9741 36.0676 39.0131 35.897 39.0594L35.6367 39.1126L35.5062 39.1385L35.3746 39.1583C35.0245 39.2109 34.6704 39.2352 34.3163 39.2318C33.6086 39.225 32.9032 39.1086 32.23 38.8922C31.8934 38.7837 31.5653 38.6498 31.2491 38.4921C30.9334 38.3327 30.629 38.1514 30.3392 37.9496C29.1837 37.1359 28.2677 35.9854 27.7481 34.6694L27.7188 34.5942L27.7837 34.5473C28.7545 33.8449 29.9219 33.4398 31.1073 33.3346C32.2944 33.2295 33.5047 33.4284 34.5986 33.8941C35.1453 34.128 35.6626 34.4281 36.1438 34.7762C36.6239 35.1259 37.0627 35.5294 37.4637 35.9656C38.2617 36.8432 38.8965 37.8592 39.3799 38.9368C39.6233 39.4753 39.8272 40.0314 39.9955 40.5976C40.0819 40.8801 40.1536 41.1666 40.2219 41.4537C40.2852 41.7419 40.3445 42.0317 40.3891 42.3233C40.4778 42.9065 40.5467 43.4913 40.5981 44.0779C40.6274 44.3706 40.6466 44.6644 40.6704 44.9577C40.689 45.2515 40.7116 45.5448 40.7263 45.8387C40.7923 47.0135 40.8296 48.1894 40.8415 49.3659C40.855 50.5418 40.842 51.7183 40.7969 52.8936C40.8121 52.306 40.8183 51.7177 40.8183 51.13C40.8161 50.5424 40.811 49.9541 40.798 49.3664C40.7743 48.1911 40.7257 47.0163 40.6483 45.8432C40.6308 45.5499 40.6054 45.2572 40.584 44.9639C40.5568 44.6712 40.5354 44.3785 40.5032 44.0864C40.4462 43.5021 40.3716 42.9189 40.2779 42.3408C40.1807 41.7633 40.0452 41.1926 39.8746 40.6326C39.7046 40.0726 39.4996 39.5234 39.2556 38.9916C38.7716 37.9282 38.138 36.9285 37.3479 36.0702C36.9509 35.6435 36.5183 35.2497 36.0456 34.9101C35.5723 34.5716 35.0651 34.2817 34.5297 34.0562C33.4584 33.6081 32.2797 33.4222 31.1248 33.5313C29.9727 33.6409 28.8771 33.9548 27.9413 34.6357C28.4479 35.9111 29.3407 36.985 30.4629 37.7722C30.7447 37.9677 31.0401 38.1429 31.3462 38.2966C31.6529 38.4486 31.9714 38.578 32.2978 38.6825C32.9507 38.891 33.634 39.0024 34.3185 39.0075C34.6608 39.0103 35.003 38.986 35.3407 38.9346L35.4672 38.9153L35.5932 38.8899L35.8445 38.8379C36.0094 38.7927 36.1766 38.7554 36.3381 38.6984C36.5019 38.6492 36.6606 38.5848 36.8204 38.5237C36.8995 38.4915 36.9768 38.4548 37.0553 38.4203C37.0943 38.4028 37.1338 38.3864 37.1722 38.3672L37.2869 38.309C37.3626 38.2695 37.4411 38.2339 37.5151 38.1904L37.7387 38.0638C37.8127 38.0203 37.8844 37.9734 37.9578 37.9282C38.0312 37.8841 38.1024 37.8355 38.173 37.7869C38.4588 37.5959 38.7315 37.3851 38.9964 37.1647C39.2624 36.9455 39.5188 36.7127 39.7701 36.4748C40.2739 35.9995 40.7539 35.4966 41.2442 35.0011C41.7338 34.5049 42.2319 34.0127 42.765 33.5562C43.0305 33.3267 43.3083 33.1103 43.5935 32.9041C43.8788 32.6978 44.1798 32.5119 44.487 32.3395C45.1043 31.9999 45.7583 31.7287 46.4332 31.5275C47.1092 31.3309 47.805 31.2004 48.5075 31.1523C49.9115 31.0585 51.3353 31.2461 52.6602 31.723C53.9845 32.1983 55.2072 32.9504 56.2329 33.9133L56.2854 33.9624L56.2583 34.028C56.1126 34.3755 55.951 34.7163 55.7709 35.0474C55.5868 35.3763 55.3885 35.6967 55.1711 36.0046C54.9508 36.3103 54.7176 36.6064 54.4674 36.8873C54.215 37.1664 53.9512 37.4354 53.6717 37.6874C52.554 38.6961 51.2189 39.4578 49.7873 39.9121C48.3556 40.3665 46.8285 40.5179 45.3375 40.3427C43.8466 40.1715 42.3963 39.6646 41.1227 38.8741L41.0612 38.8362L41.116 38.7899C41.744 38.2553 42.3183 37.6592 42.9029 37.0721C43.4879 36.4872 44.0855 35.9057 44.762 35.4215C45.4352 34.9344 46.1897 34.5626 46.981 34.3151C47.3769 34.1924 47.7818 34.0975 48.1913 34.037C48.6001 33.9771 49.0147 33.9478 49.4281 33.9489Z" stroke="white" stroke-width="0.72" mask="url(#path-2-outside-1_300_1018)"/>
</g>
<defs>
<filter id="filter0_d_300_1018" x="0.380955" y="0.333335" width="83.2381" height="83.2381" filterUnits="userSpaceOnUse" color-interpolation-filters="sRGB">
<feFlood flood-opacity="0" result="BackgroundImageFix"/>
<feColorMatrix in="SourceAlpha" type="matrix" values="0 0 0 0 0 0 0 0 0 0 0 0 0 0 0 0 0 0 127 0" result="hardAlpha"/>
<feOffset dy="2.95238"/>
<feGaussianBlur stdDeviation="11.8095"/>
<feComposite in2="hardAlpha" operator="out"/>
<feColorMatrix type="matrix" values="0 0 0 0 0.104167 0 0 0 0 0.066116 0 0 0 0 0.030816 0 0 0 0.12 0"/>
<feBlend mode="normal" in2="BackgroundImageFix" result="effect1_dropShadow_300_1018"/>
<feBlend mode="normal" in="SourceGraphic" in2="effect1_dropShadow_300_1018" result="shape"/>
</filter>
<linearGradient id="paint0_linear_300_1018" x1="24" y1="27.75" x2="61.2153" y2="30.3811" gradientUnits="userSpaceOnUse">
<stop stop-color="#30C917"/>
<stop offset="1" stop-color="#279A13"/>
</linearGradient>
</defs>
</svg>
