<svg width="10" height="18" viewBox="0 0 10 18" fill="none" xmlns="http://www.w3.org/2000/svg">
<path d="M0.615983 1.04567C0.381644 1.28008 0.25 1.59797 0.25 1.92942C0.25 2.26088 0.381644 2.57876 0.615983 2.81317L6.80348 9.00067L0.615983 15.1882C0.388286 15.4239 0.262292 15.7397 0.26514 16.0674C0.267988 16.3952 0.39945 16.7087 0.63121 16.9404C0.86297 17.1722 1.17649 17.3037 1.50423 17.3065C1.83198 17.3094 2.14773 17.1834 2.38348 16.9557L9.45473 9.88442C9.68907 9.65001 9.82072 9.33213 9.82072 9.00067C9.82072 8.66922 9.68907 8.35133 9.45473 8.11692L2.38348 1.04567C2.14907 0.811332 1.83119 0.679688 1.49973 0.679688C1.16828 0.679688 0.850393 0.811332 0.615983 1.04567Z" fill="white"/>
</svg>
